<svg viewBox="0 0 100 100" fill="none" xmlns="http://www.w3.org/2000/svg">
  <!-- 메인 스파크 -->
  <path fill="currentColor" d="
    M50 8
    C52 30 58 36 80 38
    C58 40 52 46 50 68
    C48 46 42 40 20 38
    C42 36 48 30 50 8
    Z
  "/>
  <!-- 서브 스파크 -->
  <path fill="currentColor" d="
    M50 50
    C51 62 54 65 66 66
    C54 67 51 70 50 82
    C49 70 46 67 34 66
    C46 65 49 62 50 50
    Z
  "/>
  <!-- 작은 스파크 -->
  <path fill="currentColor" opacity="0.5" d="
    M78 70
    C78.5 76 80 77.5 86 78
    C80 78.5 78.5 80 78 86
    C77.5 80 76 78.5 70 78
    C76 77.5 77.5 76 78 70
    Z
  "/>
</svg>
